<svg width="24" height="24" viewBox="0 0 24 24" fill="none" xmlns="http://www.w3.org/2000/svg">
<path d="M11.9836 11.0735C13.1036 11.0725 13.9831 10.2335 13.9821 9.16699C13.9811 8.17699 11.9796 5.73999 11.9796 5.73999C11.9796 5.73999 9.98106 8.10349 9.98206 9.16999C9.98306 10.2365 10.8636 11.0745 11.9836 11.0735ZM11.9911 20.0415C12.1224 20.0414 12.2524 20.0154 12.3737 19.9651C12.495 19.9147 12.6052 19.841 12.6979 19.7481C12.7907 19.6551 12.8643 19.5448 12.9145 19.4235C12.9646 19.3021 12.9904 19.1721 12.9903 19.0407C12.9902 18.9094 12.9642 18.7794 12.9139 18.6581C12.8636 18.5368 12.7898 18.4266 12.6969 18.3339C12.604 18.2411 12.4937 18.1675 12.3723 18.1173C12.2509 18.0672 12.1209 18.0414 11.9896 18.0415C11.7243 18.0417 11.4701 18.1472 11.2827 18.3349C11.0953 18.5226 10.9901 18.777 10.9903 19.0422C10.9905 19.3075 11.0961 19.5617 11.2837 19.7491C11.4714 19.9365 11.7258 20.0417 11.9911 20.0415Z" fill="#3D4966"/>
<path fill-rule="evenodd" clip-rule="evenodd" d="M6.47604 2.046C6.0783 2.0464 5.697 2.20475 5.416 2.48622C5.13499 2.7677 4.97727 3.14926 4.97754 3.547L4.98754 16.047C4.98767 16.244 5.02662 16.4391 5.10215 16.6211C5.17768 16.803 5.28833 16.9683 5.42776 17.1075C5.5672 17.2467 5.73269 17.3571 5.91478 17.4323C6.09688 17.5076 6.29201 17.5462 6.48904 17.546L8.86404 17.544C8.90603 17.5437 8.94789 17.5394 8.98904 17.531L8.99254 22.0435L14.9925 22.0385L14.989 17.5265C15.029 17.5345 15.0707 17.5385 15.114 17.5385L17.489 17.537C17.686 17.5368 17.881 17.4978 18.063 17.4222C18.2449 17.3467 18.4101 17.236 18.5493 17.0966C18.6884 16.9572 18.7987 16.7917 18.8739 16.6096C18.9491 16.4276 18.9877 16.2325 18.9875 16.0355L18.9775 3.5355C18.9774 3.33847 18.9385 3.14341 18.8629 2.96144C18.7874 2.77946 18.6768 2.61416 18.5373 2.47496C18.3979 2.33575 18.2324 2.22539 18.0503 2.15015C17.8682 2.07492 17.6731 2.0363 17.476 2.0365L6.47604 2.046ZM16.478 4.0375L7.47804 4.045L7.48504 13.045L16.485 13.0375L16.478 4.0375ZM7.98654 14.795C7.98654 14.6624 8.03922 14.5352 8.13299 14.4414C8.22675 14.3477 8.35393 14.295 8.48654 14.295L10.4865 14.293C10.6191 14.2929 10.7464 14.3455 10.8402 14.4393C10.934 14.533 10.9867 14.6601 10.9868 14.7928C10.9869 14.9254 10.9342 15.0526 10.8405 15.1464C10.7468 15.2402 10.6196 15.2929 10.487 15.293L8.48704 15.2945C8.35452 15.2945 8.22742 15.2419 8.13366 15.1482C8.03991 15.0546 7.98717 14.9275 7.98704 14.795M13.487 14.2905C13.3544 14.2906 13.2273 14.3433 13.1336 14.4371C13.0398 14.5309 12.9872 14.6581 12.9873 14.7907C12.9874 14.9234 13.0401 15.0505 13.1339 15.1442C13.2277 15.238 13.3549 15.2906 13.4875 15.2905L15.4875 15.289C15.5532 15.2889 15.6182 15.2759 15.6788 15.2507C15.7395 15.2256 15.7946 15.1887 15.8409 15.1422C15.8873 15.0957 15.9241 15.0406 15.9492 14.9799C15.9742 14.9192 15.9871 14.8542 15.987 14.7885C15.987 14.7228 15.974 14.6578 15.9488 14.5972C15.9236 14.5366 15.8867 14.4815 15.8402 14.4351C15.7938 14.3887 15.7386 14.3519 15.6779 14.3269C15.6172 14.3018 15.5522 14.2889 15.4865 14.289L13.487 14.2905ZM13.9885 16.5405L9.98854 16.5435L9.99254 21.0435L13.9925 21.04L13.9885 16.5405Z" fill="#3D4966"/>
</svg>
